<svg width="446" height="120" viewBox="0 0 446 120" fill="none" xmlns="http://www.w3.org/2000/svg">
<g clip-path="url(#clip0_19_630)">
<path fill-rule="evenodd" clip-rule="evenodd" d="M60 120C93.1371 120 120 93.1371 120 60C120 26.8629 93.1371 0 60 0C26.8629 0 0 26.8629 0 60C0 93.1371 26.8629 120 60 120ZM31.1562 38.8281C31.1562 34.5911 34.5911 31.1562 38.8281 31.1562C43.0652 31.1562 46.5 34.5911 46.5 38.8281C46.5 43.0652 43.0652 46.5 38.8281 46.5C34.5911 46.5 31.1562 43.0652 31.1562 38.8281ZM38.8281 29.1562C33.4865 29.1562 29.1562 33.4865 29.1562 38.8281C29.1562 44.1698 33.4865 48.5 38.8281 48.5C44.1698 48.5 48.5 44.1698 48.5 38.8281C48.5 33.4865 44.1698 29.1562 38.8281 29.1562ZM57.6172 37.8281C57.0649 37.8281 56.6172 38.2758 56.6172 38.8281C56.6172 39.3804 57.0649 39.8281 57.6172 39.8281H58.8729C63.2959 39.8281 66.5494 39.8289 68.9096 40.0225C70.0865 40.1191 70.9963 40.2605 71.6926 40.4577C72.3898 40.6551 72.8111 40.8915 73.0701 41.1365C74.2653 42.2674 74.7949 43.9335 74.4722 45.547C74.4023 45.8966 74.1948 46.3328 73.7396 46.8966C73.285 47.4597 72.6239 48.1006 71.7188 48.859C69.9037 50.38 67.248 52.2594 63.637 54.8136L51.8878 63.1239L51.844 63.1549L51.8438 63.155C48.2851 65.6722 45.5619 67.5983 43.6763 69.1784C42.7272 69.9737 41.9552 70.7097 41.384 71.4173C40.8133 72.1241 40.4021 72.8521 40.2463 73.6311C39.7886 75.9195 40.5398 78.2825 42.235 79.8865C42.812 80.4325 43.5681 80.7894 44.4422 81.0369C45.3172 81.2847 46.3724 81.4399 47.6066 81.5411C50.0585 81.7422 53.3939 81.7422 57.7528 81.7422H57.7533H57.8068H60.5078C61.0601 81.7422 61.5078 81.2945 61.5078 80.7422C61.5078 80.1899 61.0601 79.7422 60.5078 79.7422H57.8068C53.3838 79.7422 50.1303 79.7414 47.7701 79.5478C46.5932 79.4513 45.6834 79.3098 44.9871 79.1126C44.2899 78.9152 43.8685 78.6788 43.6096 78.4338C42.4144 77.3029 41.8848 75.6368 42.2075 74.0233C42.2774 73.6738 42.4848 73.2375 42.9401 72.6737C43.3947 72.1107 44.0558 71.4698 44.9609 70.7113C46.776 69.1903 49.4317 67.3109 53.0427 64.7567L64.7919 56.4464L64.8354 56.4156L64.8356 56.4154C68.3945 53.8982 71.1177 51.972 73.0034 50.3919C73.9525 49.5966 74.7245 48.8606 75.2957 48.153C75.8664 47.4462 76.2776 46.7182 76.4334 45.9392C76.8911 43.6508 76.1398 41.2878 74.4447 39.6838C73.8677 39.1378 73.1115 38.7809 72.2375 38.5334C71.3625 38.2856 70.3073 38.1304 69.0731 38.0292C66.6211 37.8281 63.2855 37.8281 58.9263 37.8281H58.9262H58.8729H57.6172ZM71.625 79.2969C71.625 75.0598 75.0598 71.625 79.2969 71.625C83.5339 71.625 86.9688 75.0598 86.9688 79.2969C86.9688 83.5339 83.5339 86.9688 79.2969 86.9688C75.0598 86.9688 71.625 83.5339 71.625 79.2969ZM79.2969 69.625C73.9552 69.625 69.625 73.9552 69.625 79.2969C69.625 84.6385 73.9552 88.9688 79.2969 88.9688C84.6385 88.9688 88.9688 84.6385 88.9688 79.2969C88.9688 73.9552 84.6385 69.625 79.2969 69.625Z" fill="#A3E636"/>
<mask id="path-2-inside-1_19_630" fill="white">
<path d="M164.768 30.5H195.188V35.96H171.268V50.195H189.208V55.655H171.268V76H164.768V30.5ZM202.399 29.2H208.509V76H202.399V29.2ZM232.059 76.455C228.982 76.455 226.209 75.7833 223.739 74.44C221.312 73.0533 219.406 71.125 218.019 68.655C216.632 66.1417 215.939 63.195 215.939 59.815C215.939 56.3917 216.654 53.4233 218.084 50.91C219.514 48.3967 221.464 46.4683 223.934 45.125C226.404 43.7383 229.177 43.045 232.254 43.045C235.331 43.045 238.104 43.7383 240.574 45.125C243.087 46.4683 245.059 48.3967 246.489 50.91C247.919 53.38 248.634 56.305 248.634 59.685C248.634 63.1083 247.897 66.0767 246.424 68.59C244.994 71.1033 243.022 73.0533 240.509 74.44C237.996 75.7833 235.179 76.455 232.059 76.455ZM231.994 70.865C233.727 70.865 235.352 70.475 236.869 69.695C238.386 68.8717 239.621 67.6367 240.574 65.99C241.571 64.3433 242.069 62.2417 242.069 59.685C242.069 57.1717 241.592 55.1133 240.639 53.51C239.729 51.8633 238.516 50.65 236.999 49.87C235.482 49.0467 233.857 48.635 232.124 48.635C230.434 48.635 228.852 49.0467 227.379 49.87C225.949 50.65 224.779 51.8633 223.869 53.51C222.959 55.1567 222.504 57.2583 222.504 59.815C222.504 62.3283 222.937 64.4083 223.804 66.055C224.714 67.6583 225.884 68.8717 227.314 69.695C228.744 70.475 230.304 70.865 231.994 70.865ZM260.455 63.975C260.715 65.1883 261.235 66.315 262.015 67.355C262.839 68.395 263.944 69.24 265.33 69.89C266.717 70.54 268.429 70.865 270.465 70.865C273.499 70.865 275.73 70.1717 277.16 68.785C278.634 67.355 279.37 65.6867 279.37 63.78C279.37 62.22 278.915 60.9417 278.005 59.945C277.139 58.905 275.925 58.0383 274.365 57.345C272.849 56.6083 271.094 55.9583 269.1 55.395C267.367 54.875 265.655 54.3333 263.965 53.77C262.319 53.1633 260.824 52.4267 259.48 51.56C258.137 50.65 257.075 49.5017 256.295 48.115C255.515 46.685 255.125 44.9083 255.125 42.785C255.125 40.1417 255.754 37.8667 257.01 35.96C258.267 34.0533 260.022 32.6017 262.275 31.605C264.572 30.565 267.215 30.045 270.205 30.045C272.719 30.045 274.972 30.4133 276.965 31.15C278.959 31.8433 280.627 32.8617 281.97 34.205C283.357 35.505 284.375 37.0867 285.025 38.95L279.11 41.095C278.85 40.1417 278.309 39.2533 277.485 38.43C276.662 37.5633 275.622 36.87 274.365 36.35C273.109 35.83 271.7 35.57 270.14 35.57C268.537 35.5267 267.085 35.7867 265.785 36.35C264.529 36.87 263.51 37.6283 262.73 38.625C261.994 39.6217 261.625 40.8133 261.625 42.2C261.625 43.7167 262.059 44.9083 262.925 45.775C263.792 46.6417 264.94 47.3567 266.37 47.92C267.844 48.4833 269.447 49.025 271.18 49.545C273 50.1083 274.777 50.715 276.51 51.365C278.244 52.015 279.804 52.8383 281.19 53.835C282.62 54.8317 283.769 56.0883 284.635 57.605C285.502 59.0783 285.935 60.9417 285.935 63.195C285.935 65.6217 285.372 67.8317 284.245 69.825C283.119 71.8183 281.407 73.4217 279.11 74.635C276.857 75.8483 274.019 76.455 270.595 76.455C267.779 76.455 265.244 76.0217 262.99 75.155C260.737 74.2883 258.874 73.0967 257.4 71.58C255.97 70.02 255.017 68.2217 254.54 66.185L260.455 63.975ZM295.759 43.5V34.4H301.934V43.5H310.059V48.96H301.934V64.95C301.934 66.9433 302.324 68.3517 303.104 69.175C303.927 69.9983 304.945 70.475 306.159 70.605C307.415 70.6917 308.715 70.6483 310.059 70.475V75.74C308.282 76.13 306.527 76.2383 304.794 76.065C303.104 75.935 301.565 75.4583 300.179 74.635C298.835 73.8117 297.752 72.62 296.929 71.06C296.149 69.4567 295.759 67.42 295.759 64.95V48.96H291.079V43.5H295.759ZM336.736 76L336.216 71.255C335.219 72.9017 333.919 74.18 332.316 75.09C330.756 75.9567 328.719 76.39 326.206 76.39C323.866 76.39 321.873 76.0217 320.226 75.285C318.579 74.505 317.301 73.4433 316.391 72.1C315.524 70.7133 315.091 69.11 315.091 67.29C315.091 64.56 316.109 62.3067 318.146 60.53C320.183 58.71 323.129 57.5833 326.986 57.15L336.216 56.11V53.575C336.216 52.1883 335.653 51.0183 334.526 50.065C333.399 49.0683 331.774 48.57 329.651 48.57C327.658 48.57 325.968 49.0467 324.581 50C323.194 50.91 322.263 52.275 321.786 54.095L316.326 52.145C317.149 49.285 318.753 47.0533 321.136 45.45C323.563 43.8467 326.488 43.045 329.911 43.045C333.984 43.045 337.083 44.0633 339.206 46.1C341.329 48.1367 342.391 50.8233 342.391 54.16V76H336.736ZM336.216 61.115L327.311 62.22C325.404 62.48 323.974 63.0217 323.021 63.845C322.068 64.625 321.591 65.665 321.591 66.965C321.591 68.1783 322.046 69.1967 322.956 70.02C323.909 70.8 325.231 71.19 326.921 71.19C329.001 71.19 330.734 70.8 332.121 70.02C333.508 69.24 334.526 68.1567 335.176 66.77C335.869 65.34 336.216 63.6933 336.216 61.83V61.115ZM353.268 43.5V34.4H359.443V43.5H367.568V48.96H359.443V64.95C359.443 66.9433 359.833 68.3517 360.613 69.175C361.437 69.9983 362.455 70.475 363.668 70.605C364.925 70.6917 366.225 70.6483 367.568 70.475V75.74C365.792 76.13 364.037 76.2383 362.303 76.065C360.613 75.935 359.075 75.4583 357.688 74.635C356.345 73.8117 355.262 72.62 354.438 71.06C353.658 69.4567 353.268 67.42 353.268 64.95V48.96H348.588V43.5H353.268ZM388.526 76.455C385.406 76.455 382.632 75.74 380.206 74.31C377.822 72.8367 375.937 70.8217 374.551 68.265C373.207 65.7083 372.536 62.7833 372.536 59.49C372.536 56.3267 373.207 53.51 374.551 51.04C375.894 48.57 377.736 46.62 380.076 45.19C382.459 43.76 385.146 43.045 388.136 43.045C391.169 43.045 393.856 43.7167 396.196 45.06C398.536 46.36 400.356 48.2017 401.656 50.585C402.956 52.925 403.584 55.6333 403.541 58.71C403.541 59.23 403.519 59.7717 403.476 60.335C403.432 60.855 403.367 61.44 403.281 62.09H379.231C379.361 63.8233 379.837 65.3617 380.661 66.705C381.527 68.005 382.611 69.0233 383.911 69.76C385.254 70.4967 386.771 70.865 388.461 70.865C390.627 70.865 392.512 70.4533 394.116 69.63C395.719 68.7633 396.846 67.615 397.496 66.185L402.826 68.07C401.526 70.7133 399.619 72.7717 397.106 74.245C394.636 75.7183 391.776 76.455 388.526 76.455ZM396.846 56.825C396.846 55.265 396.456 53.8567 395.676 52.6C394.896 51.3433 393.834 50.3683 392.491 49.675C391.191 48.9383 389.717 48.57 388.071 48.57C386.597 48.57 385.232 48.9383 383.976 49.675C382.762 50.3683 381.722 51.3433 380.856 52.6C380.032 53.8133 379.512 55.2217 379.296 56.825H396.846Z"/>
</mask>
<path d="M164.768 30.5H195.188V35.96H171.268V50.195H189.208V55.655H171.268V76H164.768V30.5ZM202.399 29.2H208.509V76H202.399V29.2ZM232.059 76.455C228.982 76.455 226.209 75.7833 223.739 74.44C221.312 73.0533 219.406 71.125 218.019 68.655C216.632 66.1417 215.939 63.195 215.939 59.815C215.939 56.3917 216.654 53.4233 218.084 50.91C219.514 48.3967 221.464 46.4683 223.934 45.125C226.404 43.7383 229.177 43.045 232.254 43.045C235.331 43.045 238.104 43.7383 240.574 45.125C243.087 46.4683 245.059 48.3967 246.489 50.91C247.919 53.38 248.634 56.305 248.634 59.685C248.634 63.1083 247.897 66.0767 246.424 68.59C244.994 71.1033 243.022 73.0533 240.509 74.44C237.996 75.7833 235.179 76.455 232.059 76.455ZM231.994 70.865C233.727 70.865 235.352 70.475 236.869 69.695C238.386 68.8717 239.621 67.6367 240.574 65.99C241.571 64.3433 242.069 62.2417 242.069 59.685C242.069 57.1717 241.592 55.1133 240.639 53.51C239.729 51.8633 238.516 50.65 236.999 49.87C235.482 49.0467 233.857 48.635 232.124 48.635C230.434 48.635 228.852 49.0467 227.379 49.87C225.949 50.65 224.779 51.8633 223.869 53.51C222.959 55.1567 222.504 57.2583 222.504 59.815C222.504 62.3283 222.937 64.4083 223.804 66.055C224.714 67.6583 225.884 68.8717 227.314 69.695C228.744 70.475 230.304 70.865 231.994 70.865ZM260.455 63.975C260.715 65.1883 261.235 66.315 262.015 67.355C262.839 68.395 263.944 69.24 265.33 69.89C266.717 70.54 268.429 70.865 270.465 70.865C273.499 70.865 275.73 70.1717 277.16 68.785C278.634 67.355 279.37 65.6867 279.37 63.78C279.37 62.22 278.915 60.9417 278.005 59.945C277.139 58.905 275.925 58.0383 274.365 57.345C272.849 56.6083 271.094 55.9583 269.1 55.395C267.367 54.875 265.655 54.3333 263.965 53.77C262.319 53.1633 260.824 52.4267 259.48 51.56C258.137 50.65 257.075 49.5017 256.295 48.115C255.515 46.685 255.125 44.9083 255.125 42.785C255.125 40.1417 255.754 37.8667 257.01 35.96C258.267 34.0533 260.022 32.6017 262.275 31.605C264.572 30.565 267.215 30.045 270.205 30.045C272.719 30.045 274.972 30.4133 276.965 31.15C278.959 31.8433 280.627 32.8617 281.97 34.205C283.357 35.505 284.375 37.0867 285.025 38.95L279.11 41.095C278.85 40.1417 278.309 39.2533 277.485 38.43C276.662 37.5633 275.622 36.87 274.365 36.35C273.109 35.83 271.7 35.57 270.14 35.57C268.537 35.5267 267.085 35.7867 265.785 36.35C264.529 36.87 263.51 37.6283 262.73 38.625C261.994 39.6217 261.625 40.8133 261.625 42.2C261.625 43.7167 262.059 44.9083 262.925 45.775C263.792 46.6417 264.94 47.3567 266.37 47.92C267.844 48.4833 269.447 49.025 271.18 49.545C273 50.1083 274.777 50.715 276.51 51.365C278.244 52.015 279.804 52.8383 281.19 53.835C282.62 54.8317 283.769 56.0883 284.635 57.605C285.502 59.0783 285.935 60.9417 285.935 63.195C285.935 65.6217 285.372 67.8317 284.245 69.825C283.119 71.8183 281.407 73.4217 279.11 74.635C276.857 75.8483 274.019 76.455 270.595 76.455C267.779 76.455 265.244 76.0217 262.99 75.155C260.737 74.2883 258.874 73.0967 257.4 71.58C255.97 70.02 255.017 68.2217 254.54 66.185L260.455 63.975ZM295.759 43.5V34.4H301.934V43.5H310.059V48.96H301.934V64.95C301.934 66.9433 302.324 68.3517 303.104 69.175C303.927 69.9983 304.945 70.475 306.159 70.605C307.415 70.6917 308.715 70.6483 310.059 70.475V75.74C308.282 76.13 306.527 76.2383 304.794 76.065C303.104 75.935 301.565 75.4583 300.179 74.635C298.835 73.8117 297.752 72.62 296.929 71.06C296.149 69.4567 295.759 67.42 295.759 64.95V48.96H291.079V43.5H295.759ZM336.736 76L336.216 71.255C335.219 72.9017 333.919 74.18 332.316 75.09C330.756 75.9567 328.719 76.39 326.206 76.39C323.866 76.39 321.873 76.0217 320.226 75.285C318.579 74.505 317.301 73.4433 316.391 72.1C315.524 70.7133 315.091 69.11 315.091 67.29C315.091 64.56 316.109 62.3067 318.146 60.53C320.183 58.71 323.129 57.5833 326.986 57.15L336.216 56.11V53.575C336.216 52.1883 335.653 51.0183 334.526 50.065C333.399 49.0683 331.774 48.57 329.651 48.57C327.658 48.57 325.968 49.0467 324.581 50C323.194 50.91 322.263 52.275 321.786 54.095L316.326 52.145C317.149 49.285 318.753 47.0533 321.136 45.45C323.563 43.8467 326.488 43.045 329.911 43.045C333.984 43.045 337.083 44.0633 339.206 46.1C341.329 48.1367 342.391 50.8233 342.391 54.16V76H336.736ZM336.216 61.115L327.311 62.22C325.404 62.48 323.974 63.0217 323.021 63.845C322.068 64.625 321.591 65.665 321.591 66.965C321.591 68.1783 322.046 69.1967 322.956 70.02C323.909 70.8 325.231 71.19 326.921 71.19C329.001 71.19 330.734 70.8 332.121 70.02C333.508 69.24 334.526 68.1567 335.176 66.77C335.869 65.34 336.216 63.6933 336.216 61.83V61.115ZM353.268 43.5V34.4H359.443V43.5H367.568V48.96H359.443V64.95C359.443 66.9433 359.833 68.3517 360.613 69.175C361.437 69.9983 362.455 70.475 363.668 70.605C364.925 70.6917 366.225 70.6483 367.568 70.475V75.74C365.792 76.13 364.037 76.2383 362.303 76.065C360.613 75.935 359.075 75.4583 357.688 74.635C356.345 73.8117 355.262 72.62 354.438 71.06C353.658 69.4567 353.268 67.42 353.268 64.95V48.96H348.588V43.5H353.268ZM388.526 76.455C385.406 76.455 382.632 75.74 380.206 74.31C377.822 72.8367 375.937 70.8217 374.551 68.265C373.207 65.7083 372.536 62.7833 372.536 59.49C372.536 56.3267 373.207 53.51 374.551 51.04C375.894 48.57 377.736 46.62 380.076 45.19C382.459 43.76 385.146 43.045 388.136 43.045C391.169 43.045 393.856 43.7167 396.196 45.06C398.536 46.36 400.356 48.2017 401.656 50.585C402.956 52.925 403.584 55.6333 403.541 58.71C403.541 59.23 403.519 59.7717 403.476 60.335C403.432 60.855 403.367 61.44 403.281 62.09H379.231C379.361 63.8233 379.837 65.3617 380.661 66.705C381.527 68.005 382.611 69.0233 383.911 69.76C385.254 70.4967 386.771 70.865 388.461 70.865C390.627 70.865 392.512 70.4533 394.116 69.63C395.719 68.7633 396.846 67.615 397.496 66.185L402.826 68.07C401.526 70.7133 399.619 72.7717 397.106 74.245C394.636 75.7183 391.776 76.455 388.526 76.455ZM396.846 56.825C396.846 55.265 396.456 53.8567 395.676 52.6C394.896 51.3433 393.834 50.3683 392.491 49.675C391.191 48.9383 389.717 48.57 388.071 48.57C386.597 48.57 385.232 48.9383 383.976 49.675C382.762 50.3683 381.722 51.3433 380.856 52.6C380.032 53.8133 379.512 55.2217 379.296 56.825H396.846Z" fill="white"/>
<path d="M164.768 30.5V29.5H163.768V30.5H164.768ZM195.188 30.5H196.188V29.5H195.188V30.5ZM195.188 35.96V36.96H196.188V35.96H195.188ZM171.268 35.96V34.96H170.268V35.96H171.268ZM171.268 50.195H170.268V51.195H171.268V50.195ZM189.208 50.195H190.208V49.195H189.208V50.195ZM189.208 55.655V56.655H190.208V55.655H189.208ZM171.268 55.655V54.655H170.268V55.655H171.268ZM171.268 76V77H172.268V76H171.268ZM164.768 76H163.768V77H164.768V76ZM164.768 31.5H195.188V29.5H164.768V31.5ZM194.188 30.5V35.96H196.188V30.5H194.188ZM195.188 34.96H171.268V36.96H195.188V34.96ZM170.268 35.96V50.195H172.268V35.96H170.268ZM171.268 51.195H189.208V49.195H171.268V51.195ZM188.208 50.195V55.655H190.208V50.195H188.208ZM189.208 54.655H171.268V56.655H189.208V54.655ZM170.268 55.655V76H172.268V55.655H170.268ZM171.268 75H164.768V77H171.268V75ZM165.768 76V30.5H163.768V76H165.768ZM202.399 29.2V28.2H201.399V29.2H202.399ZM208.509 29.2H209.509V28.2H208.509V29.2ZM208.509 76V77H209.509V76H208.509ZM202.399 76H201.399V77H202.399V76ZM202.399 30.2H208.509V28.2H202.399V30.2ZM207.509 29.2V76H209.509V29.2H207.509ZM208.509 75H202.399V77H208.509V75ZM203.399 76V29.2H201.399V76H203.399ZM223.739 74.44L223.243 75.3082L223.252 75.3135L223.261 75.3185L223.739 74.44ZM218.019 68.655L217.143 69.1381L217.147 69.1445L218.019 68.655ZM218.084 50.91L218.953 51.4045L218.953 51.4045L218.084 50.91ZM223.934 45.125L224.412 46.0036L224.424 45.997L223.934 45.125ZM240.574 45.125L240.085 45.997L240.094 46.0021L240.103 46.0069L240.574 45.125ZM246.489 50.91L245.62 51.4045L245.624 51.411L246.489 50.91ZM246.424 68.59L245.561 68.0842L245.555 68.0955L246.424 68.59ZM240.509 74.44L240.98 75.322L240.992 75.3156L240.509 74.44ZM236.869 69.695L237.326 70.5843L237.336 70.5792L237.346 70.5739L236.869 69.695ZM240.574 65.99L239.719 65.4722L239.713 65.4805L239.709 65.489L240.574 65.99ZM240.639 53.51L239.764 53.9937L239.771 54.0075L239.78 54.0211L240.639 53.51ZM236.999 49.87L236.522 50.7489L236.532 50.7542L236.542 50.7593L236.999 49.87ZM227.379 49.87L227.858 50.7479L227.867 50.7429L227.379 49.87ZM223.804 66.055L222.919 66.5207L222.927 66.5348L222.934 66.5486L223.804 66.055ZM227.314 69.695L226.815 70.5616L226.825 70.5674L226.835 70.5729L227.314 69.695ZM232.059 75.455C229.133 75.455 226.527 74.8178 224.217 73.5615L223.261 75.3185C225.891 76.7489 228.832 77.455 232.059 77.455V75.455ZM224.235 73.5718C221.968 72.2762 220.19 70.4798 218.891 68.1655L217.147 69.1445C218.621 71.7702 220.657 73.8304 223.243 75.3082L224.235 73.5718ZM218.895 68.1719C217.603 65.8308 216.939 63.0561 216.939 59.815H214.939C214.939 63.3339 215.662 66.4525 217.143 69.1381L218.895 68.1719ZM216.939 59.815C216.939 56.5331 217.624 53.7416 218.953 51.4045L217.215 50.4155C215.685 53.1051 214.939 56.2503 214.939 59.815H216.939ZM218.953 51.4045C220.294 49.0483 222.11 47.2552 224.412 46.0035L223.456 44.2465C220.818 45.6815 218.734 47.745 217.215 50.4155L218.953 51.4045ZM224.424 45.997C226.731 44.7014 229.334 44.045 232.254 44.045V42.045C229.021 42.045 226.077 42.7753 223.445 44.253L224.424 45.997ZM232.254 44.045C235.174 44.045 237.777 44.7014 240.085 45.997L241.064 44.253C238.431 42.7753 235.487 42.045 232.254 42.045V44.045ZM240.103 46.0069C242.447 47.2599 244.282 49.0527 245.62 51.4045L247.358 50.4155C245.836 47.7406 243.728 45.6768 241.045 44.2431L240.103 46.0069ZM245.624 51.411C246.95 53.7028 247.634 56.4483 247.634 59.685H249.634C249.634 56.1616 248.888 53.0572 247.354 50.409L245.624 51.411ZM247.634 59.685C247.634 62.9619 246.93 65.7493 245.561 68.0843L247.287 69.0957C248.865 66.404 249.634 63.2547 249.634 59.685H247.634ZM245.555 68.0955C244.215 70.4499 242.377 72.2675 240.026 73.5644L240.992 75.3156C243.668 73.8392 245.773 71.7568 247.293 69.0845L245.555 68.0955ZM240.038 73.5581C237.683 74.8167 235.031 75.455 232.059 75.455V77.455C235.328 77.455 238.309 76.75 240.98 75.3219L240.038 73.5581ZM231.994 71.865C233.884 71.865 235.666 71.4383 237.326 70.5843L236.412 68.8057C235.039 69.5117 233.571 69.865 231.994 69.865V71.865ZM237.346 70.5739C239.041 69.6539 240.404 68.2801 241.439 66.491L239.709 65.489C238.838 66.9932 237.731 68.0895 236.392 68.8161L237.346 70.5739ZM241.43 66.5078C242.547 64.6617 243.069 62.366 243.069 59.685H241.069C241.069 62.1174 240.594 64.025 239.719 65.4722L241.43 66.5078ZM243.069 59.685C243.069 57.0521 242.57 54.8016 241.499 52.9989L239.78 54.0211C240.614 55.4251 241.069 57.2912 241.069 59.685H243.069ZM241.514 53.0263C240.519 51.2246 239.168 49.8607 237.456 48.9807L236.542 50.7593C237.864 51.4393 238.939 52.502 239.764 53.9937L241.514 53.0263ZM237.476 48.9911C235.812 48.0879 234.023 47.635 232.124 47.635V49.635C233.692 49.635 235.152 50.0054 236.522 50.7489L237.476 48.9911ZM232.124 47.635C230.263 47.635 228.514 48.0903 226.891 48.9971L227.867 50.7429C229.191 50.003 230.605 49.635 232.124 49.635V47.635ZM226.9 48.9921C225.279 49.8766 223.981 51.2396 222.994 53.0263L224.744 53.9937C225.577 52.4871 226.619 51.4234 227.858 50.7479L226.9 48.9921ZM222.994 53.0263C221.978 54.8647 221.504 57.1473 221.504 59.815H223.504C223.504 57.3694 223.94 55.4486 224.744 53.9937L222.994 53.0263ZM221.504 59.815C221.504 62.4363 221.955 64.689 222.919 66.5207L224.689 65.5893C223.92 64.1276 223.504 62.2204 223.504 59.815H221.504ZM222.934 66.5486C223.922 68.2885 225.213 69.6391 226.815 70.5616L227.813 68.8284C226.555 68.1042 225.506 67.0282 224.674 65.5614L222.934 66.5486ZM226.835 70.5729C228.418 71.4361 230.143 71.865 231.994 71.865V69.865C230.465 69.865 229.07 69.5139 227.793 68.8171L226.835 70.5729ZM260.455 63.975L261.433 63.7655L261.191 62.6328L260.105 63.0382L260.455 63.975ZM262.015 67.355L261.215 67.955L261.223 67.9655L261.231 67.9757L262.015 67.355ZM265.33 69.89L265.755 68.9845L265.755 68.9845L265.33 69.89ZM277.16 68.785L277.857 69.5029L277.857 69.5026L277.16 68.785ZM278.005 59.945L277.237 60.5852L277.252 60.6026L277.267 60.6193L278.005 59.945ZM274.365 57.345L273.929 58.2445L273.944 58.2519L273.959 58.2588L274.365 57.345ZM269.1 55.395L268.813 56.3528L268.821 56.3551L268.828 56.3573L269.1 55.395ZM263.965 53.77L263.62 54.7083L263.634 54.7137L263.649 54.7187L263.965 53.77ZM259.48 51.56L258.92 52.3879L258.929 52.3942L258.938 52.4003L259.48 51.56ZM256.295 48.115L255.417 48.5939L255.424 48.6053L256.295 48.115ZM257.01 35.96L256.175 35.4097L256.175 35.4097L257.01 35.96ZM262.275 31.605L262.68 32.5196L262.688 32.516L262.275 31.605ZM276.965 31.15L276.619 32.088L276.628 32.0913L276.637 32.0945L276.965 31.15ZM281.97 34.205L281.263 34.9121L281.275 34.9235L281.286 34.9345L281.97 34.205ZM285.025 38.95L285.366 39.8901L286.295 39.5533L285.97 38.6206L285.025 38.95ZM279.11 41.095L278.146 41.3581L278.431 42.405L279.451 42.0351L279.11 41.095ZM277.485 38.43L276.76 39.1187L276.769 39.128L276.778 39.1371L277.485 38.43ZM274.365 36.35L273.983 37.274L273.983 37.274L274.365 36.35ZM270.14 35.57L270.113 36.5696L270.127 36.57H270.14V35.57ZM265.785 36.35L266.168 37.274L266.175 37.2708L266.183 37.2676L265.785 36.35ZM262.73 38.625L261.943 38.0087L261.934 38.0195L261.926 38.0306L262.73 38.625ZM262.925 45.775L263.633 45.0679L263.633 45.0679L262.925 45.775ZM266.37 47.92L266.004 48.8505L266.013 48.8541L266.37 47.92ZM271.18 49.545L271.476 48.5897L271.468 48.5872L271.18 49.545ZM276.51 51.365L276.159 52.3013L276.159 52.3013L276.51 51.365ZM281.19 53.835L280.607 54.647L280.613 54.6512L280.619 54.6554L281.19 53.835ZM284.635 57.605L283.767 58.1012L283.773 58.112L284.635 57.605ZM284.245 69.825L283.375 69.3329L283.375 69.3329L284.245 69.825ZM279.11 74.635L278.643 73.7508L278.636 73.7545L279.11 74.635ZM262.99 75.155L263.349 74.2217L262.99 75.155ZM257.4 71.58L256.663 72.2557L256.673 72.2664L256.683 72.2768L257.4 71.58ZM254.54 66.185L254.19 65.2482L253.366 65.5562L253.567 66.4129L254.54 66.185ZM259.478 64.1845C259.769 65.5461 260.353 66.8049 261.215 67.955L262.815 66.755C262.118 65.8251 261.661 64.8306 261.433 63.7655L259.478 64.1845ZM261.231 67.9757C262.165 69.1547 263.401 70.0899 264.906 70.7955L265.755 68.9845C264.487 68.3901 263.513 67.6353 262.799 66.7343L261.231 67.9757ZM264.906 70.7955C266.462 71.5247 268.328 71.865 270.465 71.865V69.865C268.529 69.865 266.972 69.5553 265.755 68.9845L264.906 70.7955ZM270.465 71.865C273.626 71.865 276.162 71.1456 277.857 69.5029L276.464 68.0671C275.298 69.1977 273.372 69.865 270.465 69.865V71.865ZM277.857 69.5026C279.508 67.9003 280.37 65.9793 280.37 63.78H278.37C278.37 65.394 277.76 66.8097 276.464 68.0674L277.857 69.5026ZM280.37 63.78C280.37 62.012 279.848 60.4802 278.744 59.2707L277.267 60.6193C277.983 61.4031 278.37 62.428 278.37 63.78H280.37ZM278.774 59.3048C277.787 58.1204 276.436 57.171 274.772 56.4312L273.959 58.2588C275.415 58.9057 276.491 59.6896 277.237 60.5852L278.774 59.3048ZM274.802 56.4455C273.222 55.678 271.41 55.0086 269.372 54.4327L268.828 56.3573C270.777 56.9081 272.475 57.5386 273.929 58.2445L274.802 56.4455ZM269.388 54.4372C267.664 53.92 265.962 53.3814 264.282 52.8213L263.649 54.7187C265.349 55.2853 267.07 55.83 268.813 56.3528L269.388 54.4372ZM264.311 52.8317C262.727 52.2479 261.299 51.5429 260.023 50.7197L258.938 52.4003C260.349 53.3104 261.911 54.0787 263.62 54.7083L264.311 52.8317ZM260.041 50.7321C258.824 49.9072 257.869 48.8735 257.167 47.6247L255.424 48.6053C256.281 50.1298 257.451 51.3928 258.92 52.3879L260.041 50.7321ZM257.173 47.6361C256.494 46.3909 256.125 44.7903 256.125 42.785H254.125C254.125 45.0264 254.537 46.9791 255.418 48.5939L257.173 47.6361ZM256.125 42.785C256.125 40.3057 256.713 38.2291 257.845 36.5103L256.175 35.4097C254.795 37.5042 254.125 39.9776 254.125 42.785H256.125ZM257.845 36.5103C258.988 34.7765 260.588 33.445 262.68 32.5195L261.871 30.6905C259.457 31.7583 257.546 33.3301 256.175 35.4097L257.845 36.5103ZM262.688 32.516C264.833 31.5445 267.332 31.045 270.205 31.045V29.045C267.099 29.045 264.311 29.5855 261.863 30.694L262.688 32.516ZM270.205 31.045C272.622 31.045 274.755 31.3991 276.619 32.088L277.312 30.212C275.19 29.4276 272.816 29.045 270.205 29.045V31.045ZM276.637 32.0945C278.504 32.7438 280.038 33.6868 281.263 34.9121L282.678 33.4979C281.216 32.0365 279.414 30.9428 277.294 30.2055L276.637 32.0945ZM281.286 34.9345C282.551 36.1198 283.482 37.5624 284.081 39.2794L285.97 38.6206C285.269 36.6109 284.163 34.8902 282.654 33.4755L281.286 34.9345ZM284.684 38.0099L278.769 40.1549L279.451 42.0351L285.366 39.8901L284.684 38.0099ZM280.075 40.8319C279.762 39.6829 279.117 38.6472 278.193 37.7229L276.778 39.1371C277.501 39.8595 277.939 40.6004 278.146 41.3581L280.075 40.8319ZM278.21 37.7413C277.278 36.7599 276.116 35.9922 274.748 35.426L273.983 37.274C275.128 37.7478 276.046 38.3667 276.76 39.1187L278.21 37.7413ZM274.748 35.426C273.353 34.849 271.812 34.57 270.14 34.57V36.57C271.588 36.57 272.864 36.811 273.983 37.274L274.748 35.426ZM270.167 34.5704C268.438 34.5236 266.838 34.8039 265.388 35.4324L266.183 37.2676C267.333 36.7694 268.637 36.5297 270.113 36.5696L270.167 34.5704ZM265.403 35.426C263.999 36.0068 262.837 36.8662 261.943 38.0087L263.518 39.2413C264.184 38.3905 265.058 37.7332 266.168 37.274L265.403 35.426ZM261.926 38.0306C261.047 39.2196 260.625 40.626 260.625 42.2H262.625C262.625 41.0006 262.94 40.0237 263.535 39.2194L261.926 38.0306ZM260.625 42.2C260.625 43.9151 261.122 45.3855 262.218 46.4821L263.633 45.0679C262.996 44.4312 262.625 43.5182 262.625 42.2H260.625ZM262.218 46.4821C263.203 47.4671 264.478 48.2491 266.004 48.8504L266.737 46.9896C265.403 46.4642 264.381 45.8163 263.633 45.0679L262.218 46.4821ZM266.013 48.8541C267.513 49.4273 269.14 49.9768 270.893 50.5028L271.468 48.5872C269.755 48.0732 268.175 47.5393 266.728 46.9859L266.013 48.8541ZM270.885 50.5003C272.687 51.058 274.445 51.6584 276.159 52.3013L276.862 50.4287C275.109 49.7716 273.314 49.1587 271.476 48.5897L270.885 50.5003ZM276.159 52.3013C277.817 52.9229 279.298 53.706 280.607 54.647L281.774 53.023C280.31 51.9707 278.671 51.1071 276.862 50.4287L276.159 52.3013ZM280.619 54.6554C281.927 55.5671 282.974 56.7129 283.767 58.1011L285.504 57.1089C284.564 55.4638 283.314 54.0962 281.762 53.0146L280.619 54.6554ZM283.773 58.112C284.525 59.3902 284.935 61.0648 284.935 63.195H286.935C286.935 60.8185 286.479 58.7664 285.497 57.098L283.773 58.112ZM284.935 63.195C284.935 65.4599 284.412 67.4988 283.375 69.3329L285.116 70.3171C286.333 68.1646 286.935 65.7834 286.935 63.195H284.935ZM283.375 69.3329C282.355 71.138 280.794 72.6145 278.643 73.7508L279.578 75.5192C282.02 74.2288 283.883 72.4986 285.116 70.3171L283.375 69.3329ZM278.636 73.7545C276.57 74.8674 273.907 75.455 270.595 75.455V77.455C274.131 77.455 277.145 76.8293 279.585 75.5155L278.636 73.7545ZM270.595 75.455C267.881 75.455 265.471 75.0376 263.349 74.2217L262.631 76.0883C265.017 77.0058 267.676 77.455 270.595 77.455V75.455ZM263.349 74.2217C261.212 73.3996 259.477 72.2822 258.118 70.8832L256.683 72.2768C258.271 73.9111 260.262 75.1771 262.631 76.0883L263.349 74.2217ZM258.138 70.9043C256.822 69.4692 255.951 67.8246 255.514 65.9571L253.567 66.4129C254.083 68.6187 255.119 70.5708 256.663 72.2557L258.138 70.9043ZM254.89 67.1218L260.805 64.9118L260.105 63.0382L254.19 65.2482L254.89 67.1218ZM295.759 43.5V44.5H296.759V43.5H295.759ZM295.759 34.4V33.4H294.759V34.4H295.759ZM301.934 34.4H302.934V33.4H301.934V34.4ZM301.934 43.5H300.934V44.5H301.934V43.5ZM310.059 43.5H311.059V42.5H310.059V43.5ZM310.059 48.96V49.96H311.059V48.96H310.059ZM301.934 48.96V47.96H300.934V48.96H301.934ZM303.104 69.175L302.378 69.8627L302.387 69.8726L302.396 69.8821L303.104 69.175ZM306.159 70.605L306.052 71.5993L306.071 71.6013L306.09 71.6026L306.159 70.605ZM310.059 70.475H311.059V69.3377L309.931 69.4832L310.059 70.475ZM310.059 75.74L310.273 76.7167L311.059 76.5443V75.74H310.059ZM304.794 76.065L304.893 75.07L304.882 75.0688L304.87 75.0679L304.794 76.065ZM300.179 74.635L299.656 75.4877L299.668 75.4949L300.179 74.635ZM296.929 71.06L296.029 71.4975L296.036 71.5122L296.044 71.5268L296.929 71.06ZM295.759 48.96H296.759V47.96H295.759V48.96ZM291.079 48.96H290.079V49.96H291.079V48.96ZM291.079 43.5V42.5H290.079V43.5H291.079ZM296.759 43.5V34.4H294.759V43.5H296.759ZM295.759 35.4H301.934V33.4H295.759V35.4ZM300.934 34.4V43.5H302.934V34.4H300.934ZM301.934 44.5H310.059V42.5H301.934V44.5ZM309.059 43.5V48.96H311.059V43.5H309.059ZM310.059 47.96H301.934V49.96H310.059V47.96ZM300.934 48.96V64.95H302.934V48.96H300.934ZM300.934 64.95C300.934 67.0216 301.329 68.7558 302.378 69.8627L303.829 68.4873C303.318 67.9475 302.934 66.865 302.934 64.95H300.934ZM302.396 69.8821C303.389 70.8751 304.623 71.4462 306.052 71.5993L306.265 69.6107C305.267 69.5038 304.464 69.1215 303.811 68.4679L302.396 69.8821ZM306.09 71.6026C307.417 71.6941 308.783 71.6479 310.187 71.4668L309.931 69.4832C308.648 69.6488 307.414 69.6892 306.227 69.6074L306.09 71.6026ZM309.059 70.475V75.74H311.059V70.475H309.059ZM309.844 74.7633C308.166 75.1316 306.517 75.2323 304.893 75.07L304.694 77.06C306.537 77.2443 308.398 77.1284 310.273 76.7167L309.844 74.7633ZM304.87 75.0679C303.325 74.9491 301.937 74.516 300.689 73.7751L299.668 75.4949C301.194 76.4007 302.882 76.9209 304.717 77.0621L304.87 75.0679ZM300.701 73.7824C299.529 73.0637 298.563 72.0139 297.813 70.5932L296.044 71.5268C296.941 73.2261 298.142 74.5596 299.656 75.4876L300.701 73.7824ZM297.828 70.6225C297.135 69.1976 296.759 67.3234 296.759 64.95H294.759C294.759 67.5166 295.163 69.7158 296.029 71.4975L297.828 70.6225ZM296.759 64.95V48.96H294.759V64.95H296.759ZM295.759 47.96H291.079V49.96H295.759V47.96ZM292.079 48.96V43.5H290.079V48.96H292.079ZM291.079 44.5H295.759V42.5H291.079V44.5ZM336.736 76L335.742 76.1089L335.84 77H336.736V76ZM336.216 71.255L337.21 71.1461L336.889 68.2126L335.36 70.7372L336.216 71.255ZM332.316 75.09L332.802 75.9642L332.81 75.9597L332.316 75.09ZM320.226 75.285L319.798 76.1887L319.808 76.1934L319.818 76.1978L320.226 75.285ZM316.391 72.1L315.543 72.63L315.553 72.6456L315.563 72.6608L316.391 72.1ZM318.146 60.53L318.803 61.2836L318.812 61.2757L318.146 60.53ZM326.986 57.15L327.098 58.1437L327.098 58.1437L326.986 57.15ZM336.216 56.11L336.328 57.1037L337.216 57.0037V56.11H336.216ZM334.526 50.065L333.863 50.814L333.872 50.8213L333.88 50.8284L334.526 50.065ZM324.581 50L325.13 50.836L325.139 50.8301L325.147 50.824L324.581 50ZM321.786 54.095L321.45 55.0367L322.477 55.4036L322.753 54.3484L321.786 54.095ZM316.326 52.145L315.365 51.8684L315.105 52.7709L315.99 53.0867L316.326 52.145ZM321.136 45.45L320.585 44.6156L320.578 44.6203L321.136 45.45ZM339.206 46.1L338.514 46.8217L338.514 46.8217L339.206 46.1ZM342.391 76V77H343.391V76H342.391ZM336.216 61.115H337.216V59.9832L336.093 60.1226L336.216 61.115ZM327.311 62.22L327.188 61.2275L327.176 61.2292L327.311 62.22ZM323.021 63.845L323.654 64.619L323.665 64.6105L323.675 64.6018L323.021 63.845ZM322.956 70.02L322.285 70.7615L322.303 70.7782L322.323 70.794L322.956 70.02ZM332.121 70.02L331.631 69.1484L331.631 69.1484L332.121 70.02ZM335.176 66.77L334.276 66.3337L334.27 66.3456L335.176 66.77ZM337.73 75.8911L337.21 71.1461L335.222 71.3639L335.742 76.1089L337.73 75.8911ZM335.36 70.7372C334.448 72.2443 333.27 73.3985 331.822 74.2203L332.81 75.9597C334.568 74.9615 335.99 73.5591 337.071 71.7728L335.36 70.7372ZM331.83 74.2158C330.467 74.9731 328.615 75.39 326.206 75.39V77.39C328.824 77.39 331.045 76.9402 332.802 75.9642L331.83 74.2158ZM326.206 75.39C323.967 75.39 322.12 75.037 320.634 74.3722L319.818 76.1978C321.625 77.0063 323.765 77.39 326.206 77.39V75.39ZM320.654 74.3813C319.149 73.6681 318.017 72.7169 317.219 71.5392L315.563 72.6608C316.585 74.1697 318.01 75.3419 319.798 76.1887L320.654 74.3813ZM317.239 71.57C316.483 70.3598 316.091 68.9444 316.091 67.29H314.091C314.091 69.2756 314.566 71.0668 315.543 72.63L317.239 71.57ZM316.091 67.29C316.091 64.8455 316.987 62.8681 318.803 61.2836L317.489 59.7764C315.232 61.7452 314.091 64.2745 314.091 67.29H316.091ZM318.812 61.2757C320.642 59.641 323.363 58.5633 327.098 58.1437L326.874 56.1563C322.895 56.6033 319.724 57.779 317.48 59.7843L318.812 61.2757ZM327.098 58.1437L336.328 57.1037L336.104 55.1163L326.874 56.1563L327.098 58.1437ZM337.216 56.11V53.575H335.216V56.11H337.216ZM337.216 53.575C337.216 51.8733 336.507 50.431 335.172 49.3016L333.88 50.8284C334.799 51.6057 335.216 52.5034 335.216 53.575H337.216ZM335.189 49.316C333.816 48.1019 331.919 47.57 329.651 47.57V49.57C331.63 49.57 332.983 50.0348 333.863 50.814L335.189 49.316ZM329.651 47.57C327.494 47.57 325.597 48.0881 324.014 49.176L325.147 50.824C326.339 50.0052 327.822 49.57 329.651 49.57V47.57ZM324.032 49.164C322.411 50.2281 321.349 51.8168 320.819 53.8416L322.753 54.3484C323.176 52.7332 323.978 51.5919 325.13 50.836L324.032 49.164ZM322.122 53.1533L316.662 51.2033L315.99 53.0867L321.45 55.0367L322.122 53.1533ZM317.287 52.4216C318.048 49.7787 319.513 47.7467 321.694 46.2797L320.578 44.6203C317.992 46.3599 316.251 48.7912 315.365 51.8684L317.287 52.4216ZM321.687 46.2843C323.923 44.807 326.648 44.045 329.911 44.045V42.045C326.327 42.045 323.202 42.8863 320.585 44.6157L321.687 46.2843ZM329.911 44.045C333.827 44.045 336.638 45.0228 338.514 46.8217L339.898 45.3783C337.527 43.1039 334.142 42.045 329.911 42.045V44.045ZM338.514 46.8217C340.413 48.6437 341.391 51.0557 341.391 54.16H343.391C343.391 50.5909 342.245 47.6296 339.898 45.3783L338.514 46.8217ZM341.391 54.16V76H343.391V54.16H341.391ZM342.391 75H336.736V77H342.391V75ZM336.093 60.1226L327.188 61.2276L327.434 63.2124L336.339 62.1074L336.093 60.1226ZM327.176 61.2292C325.171 61.5025 323.525 62.088 322.367 63.0882L323.675 64.6018C324.423 63.9554 325.637 63.4575 327.446 63.2108L327.176 61.2292ZM322.388 63.071C321.188 64.0527 320.591 65.3842 320.591 66.965H322.591C322.591 65.9458 322.947 65.1973 323.654 64.619L322.388 63.071ZM320.591 66.965C320.591 68.4646 321.168 69.7511 322.285 70.7615L323.627 69.2785C322.924 68.6422 322.591 67.8921 322.591 66.965H320.591ZM322.323 70.794C323.511 71.7663 325.085 72.19 326.921 72.19V70.19C325.376 70.19 324.307 69.8337 323.589 69.246L322.323 70.794ZM326.921 72.19C329.121 72.19 331.036 71.7778 332.611 70.8916L331.631 69.1484C330.433 69.8222 328.88 70.19 326.921 70.19V72.19ZM332.611 70.8916C334.172 70.0137 335.339 68.7774 336.081 67.1944L334.27 66.3456C333.713 67.5359 332.843 68.4663 331.631 69.1484L332.611 70.8916ZM336.076 67.2063C336.845 65.6187 337.216 63.8185 337.216 61.83H335.216C335.216 63.5681 334.893 65.0613 334.276 66.3337L336.076 67.2063ZM337.216 61.83V61.115H335.216V61.83H337.216ZM353.268 43.5V44.5H354.268V43.5H353.268ZM353.268 34.4V33.4H352.268V34.4H353.268ZM359.443 34.4H360.443V33.4H359.443V34.4ZM359.443 43.5H358.443V44.5H359.443V43.5ZM367.568 43.5H368.568V42.5H367.568V43.5ZM367.568 48.96V49.96H368.568V48.96H367.568ZM359.443 48.96V47.96H358.443V48.96H359.443ZM360.613 69.175L359.887 69.8627L359.897 69.8726L359.906 69.8821L360.613 69.175ZM363.668 70.605L363.562 71.5993L363.581 71.6013L363.599 71.6026L363.668 70.605ZM367.568 70.475H368.568V69.3377L367.44 69.4832L367.568 70.475ZM367.568 75.74L367.783 76.7167L368.568 76.5443V75.74H367.568ZM362.303 76.065L362.403 75.07L362.391 75.0688L362.38 75.0679L362.303 76.065ZM357.688 74.635L357.166 75.4877L357.178 75.4949L357.688 74.635ZM354.438 71.06L353.539 71.4975L353.546 71.5122L353.554 71.5268L354.438 71.06ZM353.268 48.96H354.268V47.96H353.268V48.96ZM348.588 48.96H347.588V49.96H348.588V48.96ZM348.588 43.5V42.5H347.588V43.5H348.588ZM354.268 43.5V34.4H352.268V43.5H354.268ZM353.268 35.4H359.443V33.4H353.268V35.4ZM358.443 34.4V43.5H360.443V34.4H358.443ZM359.443 44.5H367.568V42.5H359.443V44.5ZM366.568 43.5V48.96H368.568V43.5H366.568ZM367.568 47.96H359.443V49.96H367.568V47.96ZM358.443 48.96V64.95H360.443V48.96H358.443ZM358.443 64.95C358.443 67.0216 358.839 68.7558 359.887 69.8627L361.339 68.4873C360.828 67.9475 360.443 66.865 360.443 64.95H358.443ZM359.906 69.8821C360.899 70.8751 362.133 71.4462 363.562 71.5993L363.775 69.6107C362.777 69.5038 361.974 69.1215 361.32 68.4679L359.906 69.8821ZM363.599 71.6026C364.926 71.6941 366.293 71.6479 367.696 71.4668L367.44 69.4832C366.157 69.6488 364.923 69.6892 363.737 69.6074L363.599 71.6026ZM366.568 70.475V75.74H368.568V70.475H366.568ZM367.354 74.7633C365.676 75.1316 364.027 75.2323 362.403 75.07L362.204 77.06C364.047 77.2443 365.908 77.1284 367.783 76.7167L367.354 74.7633ZM362.38 75.0679C360.835 74.9491 359.447 74.516 358.199 73.7751L357.178 75.4949C358.703 76.4007 360.391 76.9209 362.227 77.0621L362.38 75.0679ZM358.211 73.7824C357.038 73.0637 356.072 72.0139 355.323 70.5932L353.554 71.5268C354.451 73.2261 355.652 74.5596 357.166 75.4876L358.211 73.7824ZM355.338 70.6225C354.644 69.1976 354.268 67.3234 354.268 64.95H352.268C352.268 67.5166 352.672 69.7158 353.539 71.4975L355.338 70.6225ZM354.268 64.95V48.96H352.268V64.95H354.268ZM353.268 47.96H348.588V49.96H353.268V47.96ZM349.588 48.96V43.5H347.588V48.96H349.588ZM348.588 44.5H353.268V42.5H348.588V44.5ZM380.206 74.31L379.68 75.1606L379.689 75.1662L379.698 75.1715L380.206 74.31ZM374.551 68.265L373.665 68.7302L373.672 68.7418L374.551 68.265ZM374.551 51.04L375.429 51.5178L375.429 51.5178L374.551 51.04ZM380.076 45.19L379.561 44.3325L379.554 44.3367L380.076 45.19ZM396.196 45.06L395.698 45.9273L395.71 45.9342L396.196 45.06ZM401.656 50.585L400.778 51.0639L400.782 51.0706L401.656 50.585ZM403.541 58.71L402.541 58.6959V58.71H403.541ZM403.476 60.335L404.472 60.4181L404.473 60.4117L403.476 60.335ZM403.281 62.09V63.09H404.156L404.272 62.2222L403.281 62.09ZM379.231 62.09V61.09H378.153L378.234 62.1648L379.231 62.09ZM380.661 66.705L379.808 67.2276L379.818 67.2438L379.829 67.2597L380.661 66.705ZM383.911 69.76L383.418 70.6301L383.43 70.6368L383.911 69.76ZM394.116 69.63L394.573 70.5196L394.582 70.5147L394.591 70.5097L394.116 69.63ZM397.496 66.185L397.829 65.2422L396.965 64.9365L396.585 65.7712L397.496 66.185ZM402.826 68.07L403.723 68.5113L404.219 67.5022L403.159 67.1272L402.826 68.07ZM397.106 74.245L396.6 73.3823L396.593 73.3862L397.106 74.245ZM396.846 56.825V57.825H397.846V56.825H396.846ZM395.676 52.6L394.826 53.1274L394.826 53.1274L395.676 52.6ZM392.491 49.675L391.998 50.545L392.015 50.5547L392.032 50.5636L392.491 49.675ZM383.976 49.675L384.472 50.5433L384.481 50.5377L383.976 49.675ZM380.856 52.6L380.032 52.0322L380.028 52.0385L380.856 52.6ZM379.296 56.825L378.305 56.6911L378.151 57.825H379.296V56.825ZM388.526 75.455C385.565 75.455 382.97 74.7783 380.713 73.4485L379.698 75.1715C382.295 76.7017 385.247 77.455 388.526 77.455V75.455ZM380.732 73.4594C378.502 72.0813 376.737 70.1977 375.43 67.7882L373.672 68.7418C375.138 71.4456 377.142 73.592 379.68 75.1606L380.732 73.4594ZM375.436 67.7999C374.178 65.4057 373.536 62.6442 373.536 59.49H371.536C371.536 62.9224 372.237 66.011 373.665 68.7301L375.436 67.7999ZM373.536 59.49C373.536 56.4724 374.175 53.8236 375.429 51.5178L373.672 50.5622C372.24 53.1964 371.536 56.181 371.536 59.49H373.536ZM375.429 51.5178C376.691 49.1981 378.411 47.3793 380.597 46.0433L379.554 44.3367C377.06 45.8607 375.097 47.9419 373.672 50.5622L375.429 51.5178ZM380.59 46.0475C382.806 44.7178 385.313 44.045 388.136 44.045V42.045C384.979 42.045 382.112 42.8022 379.561 44.3325L380.59 46.0475ZM388.136 44.045C391.016 44.045 393.527 44.6813 395.698 45.9273L396.694 44.1927C394.184 42.752 391.322 42.045 388.136 42.045V44.045ZM395.71 45.9342C397.882 47.1408 399.567 48.8443 400.778 51.0639L402.534 50.1061C401.144 47.5591 399.189 45.5792 396.681 44.1858L395.71 45.9342ZM400.782 51.0706C401.985 53.2363 402.582 55.7675 402.541 58.6959L404.541 58.7241C404.586 55.4992 403.927 52.6137 402.53 50.0994L400.782 51.0706ZM402.541 58.71C402.541 59.2023 402.52 59.7183 402.479 60.2583L404.473 60.4117C404.518 59.825 404.541 59.2577 404.541 58.71H402.541ZM402.479 60.2519C402.438 60.752 402.375 61.3202 402.289 61.9578L404.272 62.2222C404.36 61.5598 404.427 60.958 404.472 60.418L402.479 60.2519ZM403.281 61.09H379.231V63.09H403.281V61.09ZM378.234 62.1648C378.374 64.0401 378.893 65.735 379.808 67.2276L381.513 66.1824C380.781 64.9883 380.347 63.6066 380.228 62.0152L378.234 62.1648ZM379.829 67.2597C380.778 68.6838 381.975 69.8127 383.418 70.63L384.404 68.89C383.246 68.234 382.277 67.3262 381.493 66.1503L379.829 67.2597ZM383.43 70.6368C384.935 71.4624 386.62 71.865 388.461 71.865V69.865C386.921 69.865 385.573 69.5309 384.392 68.8832L383.43 70.6368ZM388.461 71.865C390.754 71.865 392.802 71.4287 394.573 70.5196L393.659 68.7404C392.223 69.4779 390.5 69.865 388.461 69.865V71.865ZM394.591 70.5097C396.354 69.5566 397.652 68.2581 398.406 66.5988L396.585 65.7712C396.04 66.9719 395.084 67.97 393.64 68.7503L394.591 70.5097ZM397.162 67.1278L402.492 69.0128L403.159 67.1272L397.829 65.2422L397.162 67.1278ZM401.928 67.6287C400.714 70.0983 398.942 72.0092 396.6 73.3823L397.611 75.1077C400.296 73.5341 402.338 71.3284 403.723 68.5113L401.928 67.6287ZM396.593 73.3862C394.298 74.7556 391.619 75.455 388.526 75.455V77.455C391.932 77.455 394.974 76.6811 397.618 75.1038L396.593 73.3862ZM397.846 56.825C397.846 55.0893 397.409 53.4965 396.525 52.0726L394.826 53.1274C395.502 54.2169 395.846 55.4407 395.846 56.825H397.846ZM396.525 52.0726C395.648 50.6589 394.45 49.5607 392.949 48.7864L392.032 50.5636C393.219 51.176 394.144 52.0278 394.826 53.1274L396.525 52.0726ZM392.984 48.805C391.518 47.9746 389.872 47.57 388.071 47.57V49.57C389.563 49.57 390.863 49.902 391.998 50.545L392.984 48.805ZM388.071 47.57C386.422 47.57 384.882 47.9847 383.47 48.8123L384.481 50.5377C385.583 49.892 386.773 49.57 388.071 49.57V47.57ZM383.48 48.8068C382.124 49.5811 380.976 50.6637 380.033 52.0323L381.679 53.1677C382.468 52.0229 383.4 51.1555 384.472 50.5432L383.48 48.8068ZM380.028 52.0385C379.109 53.3926 378.54 54.9506 378.305 56.6911L380.287 56.9589C380.485 55.4928 380.955 54.2341 381.683 53.1615L380.028 52.0385ZM379.296 57.825H396.846V55.825H379.296V57.825Z" fill="white" mask="url(#path-2-inside-1_19_630)"/>
</g>
<defs>
<clipPath id="clip0_19_630">
<rect width="446" height="120" fill="white"/>
</clipPath>
</defs>
</svg>
