<svg width="120" height="120" viewBox="0 0 120 120" fill="none" xmlns="http://www.w3.org/2000/svg">
<path fill-rule="evenodd" clip-rule="evenodd" d="M60 120C93.1371 120 120 93.1371 120 60C120 26.8629 93.1371 0 60 0C26.8629 0 0 26.8629 0 60C0 93.1371 26.8629 120 60 120ZM31.1562 38.8281C31.1562 34.5911 34.5911 31.1562 38.8281 31.1562C43.0652 31.1562 46.5 34.5911 46.5 38.8281C46.5 43.0652 43.0652 46.5 38.8281 46.5C34.5911 46.5 31.1562 43.0652 31.1562 38.8281ZM38.8281 29.1562C33.4865 29.1562 29.1562 33.4865 29.1562 38.8281C29.1562 44.1698 33.4865 48.5 38.8281 48.5C44.1698 48.5 48.5 44.1698 48.5 38.8281C48.5 33.4865 44.1698 29.1562 38.8281 29.1562ZM57.6172 37.8281C57.0649 37.8281 56.6172 38.2758 56.6172 38.8281C56.6172 39.3804 57.0649 39.8281 57.6172 39.8281H58.8729C63.2959 39.8281 66.5494 39.8289 68.9096 40.0225C70.0865 40.1191 70.9963 40.2605 71.6926 40.4577C72.3898 40.6551 72.8111 40.8915 73.0701 41.1365C74.2653 42.2674 74.7949 43.9335 74.4722 45.547C74.4023 45.8966 74.1948 46.3328 73.7396 46.8966C73.285 47.4597 72.6239 48.1006 71.7188 48.859C69.9037 50.38 67.248 52.2594 63.637 54.8136L51.8878 63.1239L51.844 63.1549L51.8438 63.155C48.2851 65.6722 45.5619 67.5983 43.6763 69.1784C42.7272 69.9737 41.9552 70.7097 41.384 71.4173C40.8133 72.1241 40.4021 72.8521 40.2463 73.6311C39.7886 75.9195 40.5398 78.2825 42.235 79.8865C42.812 80.4325 43.5681 80.7894 44.4422 81.0369C45.3172 81.2847 46.3724 81.4399 47.6066 81.5411C50.0585 81.7422 53.3939 81.7422 57.7528 81.7422H57.7533H57.8068H60.5078C61.0601 81.7422 61.5078 81.2945 61.5078 80.7422C61.5078 80.1899 61.0601 79.7422 60.5078 79.7422H57.8068C53.3838 79.7422 50.1303 79.7414 47.7701 79.5478C46.5932 79.4513 45.6834 79.3098 44.9871 79.1126C44.2899 78.9152 43.8685 78.6788 43.6096 78.4338C42.4144 77.3029 41.8848 75.6368 42.2075 74.0233C42.2774 73.6738 42.4848 73.2375 42.9401 72.6737C43.3947 72.1107 44.0558 71.4698 44.9609 70.7113C46.776 69.1903 49.4317 67.3109 53.0427 64.7567L64.7919 56.4464L64.8354 56.4156L64.8356 56.4154C68.3945 53.8982 71.1177 51.972 73.0034 50.3919C73.9525 49.5966 74.7245 48.8606 75.2957 48.153C75.8664 47.4462 76.2776 46.7182 76.4334 45.9392C76.8911 43.6508 76.1398 41.2878 74.4447 39.6838C73.8677 39.1378 73.1115 38.7809 72.2375 38.5334C71.3625 38.2856 70.3073 38.1304 69.0731 38.0292C66.6211 37.8281 63.2855 37.8281 58.9263 37.8281H58.9262H58.8729H57.6172ZM71.625 79.2969C71.625 75.0598 75.0598 71.625 79.2969 71.625C83.5339 71.625 86.9688 75.0598 86.9688 79.2969C86.9688 83.5339 83.5339 86.9688 79.2969 86.9688C75.0598 86.9688 71.625 83.5339 71.625 79.2969ZM79.2969 69.625C73.9552 69.625 69.625 73.9552 69.625 79.2969C69.625 84.6385 73.9552 88.9688 79.2969 88.9688C84.6385 88.9688 88.9688 84.6385 88.9688 79.2969C88.9688 73.9552 84.6385 69.625 79.2969 69.625Z" fill="#A3E636" stroke="black" stroke-width="3" />
</svg>
